<svg width="406" height="223" viewBox="0 0 406 223" fill="none" xmlns="http://www.w3.org/2000/svg">
<g clip-path="url(#clip0_15673_8071)">
<path d="M96.131 152.08L48.5768 152.08L0 1.23621L51.3892 1.23621L96.131 152.08Z" fill="#0FB2EF"/>
<path d="M96.131 152.08L49.5995 152.08L94.0856 1.23621L145.73 1.23621L96.131 152.08Z" fill="#0FB2EF"/>
<path d="M166.824 152.08L142.918 152.08L94.0856 1.23621L145.73 1.23621L188.683 152.08L166.824 152.08Z" fill="#0FB2EF"/>
<path d="M188.683 152.08L143.174 152.08L186.893 1.23621L238.282 1.23621L188.683 152.08Z" fill="#0FB2EF"/>
<path d="M239.176 1.23615L263.082 1.23616L311.914 152.08L260.27 152.08L217.317 1.23615L239.176 1.23615Z" fill="#FF9505"/>
<path d="M309.869 1.23615L357.423 1.23616L406 152.08L354.611 152.08L309.869 1.23615Z" fill="#FF9505"/>
<path d="M309.869 1.23616L356.401 1.23616L311.914 152.08L260.27 152.08L309.869 1.23616Z" fill="#FF9505"/>
<path d="M217.317 1.23616L262.826 1.23616L219.107 152.08L167.718 152.08L217.317 1.23616Z" fill="#FF9505"/>
<path d="M279.342 222.4C294.063 222.4 304.739 211.711 304.739 198.234C304.805 184.956 294.063 174.4 279.342 174.4C264.621 174.4 253.879 184.823 253.879 198.234C253.879 211.512 264.621 222.4 279.342 222.4ZM269.13 198.234C269.13 192.06 273.706 187.412 279.342 187.412C284.912 187.412 289.487 191.993 289.487 198.234C289.554 204.541 284.978 209.388 279.342 209.388C273.706 209.388 269.13 204.541 269.13 198.234Z" fill="#FF9505"/>
<path d="M332.201 222.267C344.335 222.267 350.966 215.562 352.955 211.512L343.142 204.807C342.081 206.732 339.694 209.985 332.93 209.985C327.028 209.985 321.989 205.537 321.989 198.5C321.989 191.329 327.227 186.682 333.063 186.749C338.566 186.815 341.351 189.537 342.81 191.728L352.955 184.359C349.905 179.446 342.876 174.599 332.201 174.599C318.408 174.599 306.738 184.027 306.738 198.5C306.738 213.105 318.209 222.267 332.201 222.267Z" fill="#FF9505"/>
<path d="M356.599 175.13V221.603H371.851V209.188L376.227 204.807L387.831 221.603H406L386.969 194.051L405.735 175.13H386.571L371.851 189.935V175.13H356.599Z" fill="#FF9505"/>
<path d="M245.878 175.047L232.041 175.047L224.192 199.855L216.401 175.047L202.564 175.047L187.913 221.603H201.692L209.483 196.928L217.273 221.603H231.111L238.96 196.928L246.75 221.603H260.53L245.878 175.047Z" fill="#FF9505"/>
<path d="M90.9568 175.131H75.7057V221.604H90.9568V175.131Z" fill="#0FB2EF"/>
<path d="M97.2796 221.604H112.531V209.189H115.846L124.135 221.604H141.375L131.495 206.799C136.734 203.877 139.651 198.5 139.651 192.193C139.585 182.699 132.954 175.131 121.549 175.131H97.2796V221.604ZM120.554 187.28C123.604 187.28 125.13 189.736 125.13 192.193C125.13 194.583 123.604 197.039 120.554 197.039H112.531V187.28H120.554Z" fill="#0FB2EF"/>
<path d="M144.688 175.131V221.604H183.081V209.653H159.939V204.143H179.832V192.591H159.939V187.081H183.081V175.131H144.688Z" fill="#0FB2EF"/>
<path d="M14.6513 221.604H28.4887L36.3376 196.795L44.1284 221.604H57.9657L72.617 175.047H58.8378L51.047 199.722L43.2563 175.047H29.4189L21.57 199.722L13.7792 175.047H0L14.6513 221.604Z" fill="#0FB2EF"/>
</g>
<defs>
<clipPath id="clip0_15673_8071">
<rect width="406" height="222.4" fill="white"/>
</clipPath>
</defs>
</svg>
